<mxfile host="app.diagrams.net" modified="2023-07-10T06:32:12.440Z" agent="5.0 (Windows NT 10.0; Win64; x64) AppleWebKit/537.36 (KHTML, like Gecko) Chrome/114.0.0.0 Safari/537.36" etag="3dxhTR0MyG_80MHGD06w" version="21.0.6" type="github">
  <diagram name="第 1 页" id="XqlunTZN08ycfXzX95Lt">
    <mxGraphModel dx="1434" dy="1965" grid="1" gridSize="10" guides="1" tooltips="1" connect="1" arrows="1" fold="1" page="1" pageScale="1" pageWidth="827" pageHeight="1169" math="0" shadow="0">
      <root>
        <mxCell id="0" />
        <mxCell id="1" parent="0" />
        <mxCell id="3WTS7RlHz6xD8wv_IoY_-43" value="" style="swimlane;startSize=0;fillColor=#E6E6E6;strokeColor=#666666;gradientColor=none;swimlaneFillColor=#E8E8E8;" vertex="1" parent="1">
          <mxGeometry x="100" y="370" width="1200" height="230" as="geometry" />
        </mxCell>
        <mxCell id="3WTS7RlHz6xD8wv_IoY_-44" value="&lt;font style=&quot;font-size: 24px;&quot;&gt;客户端&lt;/font&gt;" style="text;html=1;strokeColor=none;fillColor=none;align=center;verticalAlign=middle;whiteSpace=wrap;rounded=0;" vertex="1" parent="3WTS7RlHz6xD8wv_IoY_-43">
          <mxGeometry x="10" y="107.5" width="90" height="30" as="geometry" />
        </mxCell>
        <mxCell id="3WTS7RlHz6xD8wv_IoY_-41" value="" style="swimlane;startSize=0;fillColor=#E6E6E6;strokeColor=#666666;gradientColor=none;swimlaneFillColor=#E8E8E8;" vertex="1" parent="1">
          <mxGeometry x="100" y="140" width="1200" height="150" as="geometry" />
        </mxCell>
        <mxCell id="3WTS7RlHz6xD8wv_IoY_-42" value="&lt;font style=&quot;font-size: 24px;&quot;&gt;服务端&lt;/font&gt;" style="text;html=1;strokeColor=none;fillColor=none;align=center;verticalAlign=middle;whiteSpace=wrap;rounded=0;" vertex="1" parent="3WTS7RlHz6xD8wv_IoY_-41">
          <mxGeometry x="10" y="107.5" width="90" height="30" as="geometry" />
        </mxCell>
        <mxCell id="3WTS7RlHz6xD8wv_IoY_-3" style="edgeStyle=orthogonalEdgeStyle;rounded=0;orthogonalLoop=1;jettySize=auto;html=1;entryX=0;entryY=0.5;entryDx=0;entryDy=0;" edge="1" parent="1" source="3WTS7RlHz6xD8wv_IoY_-1" target="3WTS7RlHz6xD8wv_IoY_-2">
          <mxGeometry relative="1" as="geometry">
            <mxPoint x="150" y="425.75" as="targetPoint" />
          </mxGeometry>
        </mxCell>
        <mxCell id="3WTS7RlHz6xD8wv_IoY_-1" value="" style="aspect=fixed;perimeter=ellipsePerimeter;html=1;align=center;shadow=0;dashed=0;spacingTop=3;image;image=img/lib/active_directory/user_accounts.svg;" vertex="1" parent="1">
          <mxGeometry x="110" y="401.51" width="50" height="48.5" as="geometry" />
        </mxCell>
        <mxCell id="3WTS7RlHz6xD8wv_IoY_-8" style="edgeStyle=orthogonalEdgeStyle;rounded=0;orthogonalLoop=1;jettySize=auto;html=1;exitX=0.5;exitY=0;exitDx=0;exitDy=0;" edge="1" parent="1" source="3WTS7RlHz6xD8wv_IoY_-2">
          <mxGeometry relative="1" as="geometry">
            <mxPoint x="265" y="240" as="targetPoint" />
          </mxGeometry>
        </mxCell>
        <mxCell id="3WTS7RlHz6xD8wv_IoY_-9" value="Thrift 协议" style="edgeLabel;html=1;align=center;verticalAlign=middle;resizable=0;points=[];" vertex="1" connectable="0" parent="3WTS7RlHz6xD8wv_IoY_-8">
          <mxGeometry x="0.2107" y="2" relative="1" as="geometry">
            <mxPoint x="2" y="27" as="offset" />
          </mxGeometry>
        </mxCell>
        <mxCell id="3WTS7RlHz6xD8wv_IoY_-2" value="用户账号&lt;br&gt;用户密码&lt;br&gt;......" style="rounded=0;whiteSpace=wrap;html=1;" vertex="1" parent="1">
          <mxGeometry x="210" y="398.63" width="110" height="54.25" as="geometry" />
        </mxCell>
        <mxCell id="3WTS7RlHz6xD8wv_IoY_-7" value="调用官网 Web 接口认证" style="edgeStyle=orthogonalEdgeStyle;rounded=0;orthogonalLoop=1;jettySize=auto;html=1;" edge="1" parent="1" source="3WTS7RlHz6xD8wv_IoY_-5" target="3WTS7RlHz6xD8wv_IoY_-6">
          <mxGeometry relative="1" as="geometry">
            <mxPoint x="265" y="110" as="targetPoint" />
          </mxGeometry>
        </mxCell>
        <mxCell id="3WTS7RlHz6xD8wv_IoY_-5" value="用户账号&lt;br&gt;用户协议&lt;br&gt;......" style="rounded=0;whiteSpace=wrap;html=1;" vertex="1" parent="1">
          <mxGeometry x="210" y="180" width="110" height="54.25" as="geometry" />
        </mxCell>
        <mxCell id="3WTS7RlHz6xD8wv_IoY_-28" style="edgeStyle=orthogonalEdgeStyle;rounded=0;orthogonalLoop=1;jettySize=auto;html=1;exitX=1;exitY=0.5;exitDx=0;exitDy=0;entryX=0.5;entryY=0;entryDx=0;entryDy=0;" edge="1" parent="1" source="3WTS7RlHz6xD8wv_IoY_-6" target="3WTS7RlHz6xD8wv_IoY_-11">
          <mxGeometry relative="1" as="geometry" />
        </mxCell>
        <mxCell id="3WTS7RlHz6xD8wv_IoY_-6" value="web server" style="aspect=fixed;perimeter=ellipsePerimeter;html=1;align=center;shadow=0;dashed=0;spacingTop=3;image;image=img/lib/active_directory/web_server.svg;" vertex="1" parent="1">
          <mxGeometry x="245" y="-10" width="40" height="50" as="geometry" />
        </mxCell>
        <mxCell id="3WTS7RlHz6xD8wv_IoY_-15" style="edgeStyle=orthogonalEdgeStyle;rounded=0;orthogonalLoop=1;jettySize=auto;html=1;exitX=0.5;exitY=1;exitDx=0;exitDy=0;entryX=0.5;entryY=0;entryDx=0;entryDy=0;" edge="1" parent="1" source="3WTS7RlHz6xD8wv_IoY_-11" target="3WTS7RlHz6xD8wv_IoY_-13">
          <mxGeometry relative="1" as="geometry" />
        </mxCell>
        <mxCell id="3WTS7RlHz6xD8wv_IoY_-11" value="认证结果" style="rounded=0;whiteSpace=wrap;html=1;" vertex="1" parent="1">
          <mxGeometry x="373.75" y="180" width="110" height="54.25" as="geometry" />
        </mxCell>
        <mxCell id="3WTS7RlHz6xD8wv_IoY_-29" value="认证成功" style="edgeStyle=orthogonalEdgeStyle;rounded=0;orthogonalLoop=1;jettySize=auto;html=1;exitX=1;exitY=0.5;exitDx=0;exitDy=0;" edge="1" parent="1" source="3WTS7RlHz6xD8wv_IoY_-13">
          <mxGeometry relative="1" as="geometry">
            <mxPoint x="590" y="425" as="targetPoint" />
          </mxGeometry>
        </mxCell>
        <mxCell id="3WTS7RlHz6xD8wv_IoY_-30" value="认证失败" style="edgeStyle=orthogonalEdgeStyle;rounded=0;orthogonalLoop=1;jettySize=auto;html=1;entryX=0.5;entryY=0;entryDx=0;entryDy=0;" edge="1" parent="1" source="3WTS7RlHz6xD8wv_IoY_-13" target="3WTS7RlHz6xD8wv_IoY_-20">
          <mxGeometry relative="1" as="geometry">
            <mxPoint x="428.75" y="520" as="targetPoint" />
          </mxGeometry>
        </mxCell>
        <mxCell id="3WTS7RlHz6xD8wv_IoY_-13" value="判断登录结果" style="rhombus;whiteSpace=wrap;html=1;" vertex="1" parent="1">
          <mxGeometry x="367.5" y="377.75" width="122.5" height="94.25" as="geometry" />
        </mxCell>
        <mxCell id="3WTS7RlHz6xD8wv_IoY_-31" style="edgeStyle=orthogonalEdgeStyle;rounded=0;orthogonalLoop=1;jettySize=auto;html=1;exitX=0.5;exitY=0;exitDx=0;exitDy=0;entryX=0.5;entryY=1;entryDx=0;entryDy=0;" edge="1" parent="1" source="3WTS7RlHz6xD8wv_IoY_-19" target="3WTS7RlHz6xD8wv_IoY_-21">
          <mxGeometry relative="1" as="geometry" />
        </mxCell>
        <mxCell id="3WTS7RlHz6xD8wv_IoY_-32" value="Thrift协议" style="edgeLabel;html=1;align=center;verticalAlign=middle;resizable=0;points=[];" vertex="1" connectable="0" parent="3WTS7RlHz6xD8wv_IoY_-31">
          <mxGeometry x="-0.2278" y="-2" relative="1" as="geometry">
            <mxPoint as="offset" />
          </mxGeometry>
        </mxCell>
        <mxCell id="3WTS7RlHz6xD8wv_IoY_-19" value="&lt;div style=&quot;text-align: left;&quot;&gt;&lt;span style=&quot;background-color: initial;&quot;&gt;1、接口名称&lt;/span&gt;&lt;/div&gt;&lt;div style=&quot;text-align: left;&quot;&gt;&lt;span style=&quot;background-color: initial;&quot;&gt;2、msgpack.pack(接口参数)&lt;/span&gt;&lt;/div&gt;" style="rounded=0;whiteSpace=wrap;html=1;" vertex="1" parent="1">
          <mxGeometry x="595" y="386.38" width="160" height="77" as="geometry" />
        </mxCell>
        <mxCell id="3WTS7RlHz6xD8wv_IoY_-20" value="提示认证失败" style="rounded=0;whiteSpace=wrap;html=1;" vertex="1" parent="1">
          <mxGeometry x="378.13" y="540" width="101.25" height="40" as="geometry" />
        </mxCell>
        <mxCell id="3WTS7RlHz6xD8wv_IoY_-22" style="edgeStyle=orthogonalEdgeStyle;rounded=0;orthogonalLoop=1;jettySize=auto;html=1;" edge="1" parent="1" source="3WTS7RlHz6xD8wv_IoY_-21">
          <mxGeometry relative="1" as="geometry">
            <mxPoint x="820" y="205" as="targetPoint" />
          </mxGeometry>
        </mxCell>
        <mxCell id="3WTS7RlHz6xD8wv_IoY_-21" value="1、接口名称&lt;br&gt;2、msgpack.unpackb(接口参数)" style="rounded=0;whiteSpace=wrap;html=1;align=left;" vertex="1" parent="1">
          <mxGeometry x="580" y="180" width="190" height="50" as="geometry" />
        </mxCell>
        <mxCell id="3WTS7RlHz6xD8wv_IoY_-39" style="edgeStyle=orthogonalEdgeStyle;rounded=0;orthogonalLoop=1;jettySize=auto;html=1;exitX=1;exitY=0.5;exitDx=0;exitDy=0;entryX=0;entryY=0.5;entryDx=0;entryDy=0;" edge="1" parent="1" source="3WTS7RlHz6xD8wv_IoY_-23" target="3WTS7RlHz6xD8wv_IoY_-25">
          <mxGeometry relative="1" as="geometry" />
        </mxCell>
        <mxCell id="3WTS7RlHz6xD8wv_IoY_-23" value="jqdata" style="rounded=0;whiteSpace=wrap;html=1;" vertex="1" parent="1">
          <mxGeometry x="1010" y="180" width="80" height="50" as="geometry" />
        </mxCell>
        <mxCell id="3WTS7RlHz6xD8wv_IoY_-40" style="edgeStyle=orthogonalEdgeStyle;rounded=0;orthogonalLoop=1;jettySize=auto;html=1;exitX=0.5;exitY=1;exitDx=0;exitDy=0;" edge="1" parent="1" source="3WTS7RlHz6xD8wv_IoY_-25" target="3WTS7RlHz6xD8wv_IoY_-26">
          <mxGeometry relative="1" as="geometry" />
        </mxCell>
        <mxCell id="3WTS7RlHz6xD8wv_IoY_-25" value="pickle.dumps(结果)" style="rounded=0;whiteSpace=wrap;html=1;" vertex="1" parent="1">
          <mxGeometry x="1150" y="175" width="120" height="60" as="geometry" />
        </mxCell>
        <mxCell id="3WTS7RlHz6xD8wv_IoY_-26" value="pickle.loads(结果)" style="rounded=0;whiteSpace=wrap;html=1;" vertex="1" parent="1">
          <mxGeometry x="1150" y="392.88" width="120" height="60" as="geometry" />
        </mxCell>
        <mxCell id="3WTS7RlHz6xD8wv_IoY_-35" value="有权限" style="edgeStyle=orthogonalEdgeStyle;rounded=0;orthogonalLoop=1;jettySize=auto;html=1;entryX=0;entryY=0.5;entryDx=0;entryDy=0;" edge="1" parent="1" source="3WTS7RlHz6xD8wv_IoY_-34" target="3WTS7RlHz6xD8wv_IoY_-23">
          <mxGeometry relative="1" as="geometry" />
        </mxCell>
        <mxCell id="3WTS7RlHz6xD8wv_IoY_-37" style="edgeStyle=orthogonalEdgeStyle;rounded=0;orthogonalLoop=1;jettySize=auto;html=1;entryX=0.5;entryY=0;entryDx=0;entryDy=0;" edge="1" parent="1" source="3WTS7RlHz6xD8wv_IoY_-34" target="3WTS7RlHz6xD8wv_IoY_-36">
          <mxGeometry relative="1" as="geometry" />
        </mxCell>
        <mxCell id="3WTS7RlHz6xD8wv_IoY_-38" value="无权限" style="edgeLabel;html=1;align=center;verticalAlign=middle;resizable=0;points=[];" vertex="1" connectable="0" parent="3WTS7RlHz6xD8wv_IoY_-37">
          <mxGeometry x="-0.6818" y="3" relative="1" as="geometry">
            <mxPoint y="1" as="offset" />
          </mxGeometry>
        </mxCell>
        <mxCell id="3WTS7RlHz6xD8wv_IoY_-34" value="判断接口权限" style="rhombus;whiteSpace=wrap;html=1;" vertex="1" parent="1">
          <mxGeometry x="820" y="162.5" width="110" height="85" as="geometry" />
        </mxCell>
        <mxCell id="3WTS7RlHz6xD8wv_IoY_-36" value="提示接口无权限" style="rounded=0;whiteSpace=wrap;html=1;" vertex="1" parent="1">
          <mxGeometry x="817.5" y="407.76" width="115" height="34.24" as="geometry" />
        </mxCell>
      </root>
    </mxGraphModel>
  </diagram>
</mxfile>
